<svg width="16" height="16" viewBox="0 0 16 16" fill="none" xmlns="http://www.w3.org/2000/svg">
<g clip-path="url(#clip0_13_163)">
<path fill-rule="evenodd" clip-rule="evenodd" d="M11.6984 13.7157C10.5004 14.5265 9.05549 15 7.5 15C3.35786 15 0 11.6421 0 7.5C0 3.35786 3.35786 0 7.5 0C11.6421 0 15 3.35786 15 7.5C15 9.18382 14.4451 10.738 13.5082 11.9898L15.7744 14.2389L14 16L11.6984 13.7157ZM12.5 7.5C12.5 10.2614 10.2614 12.5 7.5 12.5C4.73858 12.5 2.5 10.2614 2.5 7.5C2.5 4.73858 4.73858 2.5 7.5 2.5C10.2614 2.5 12.5 4.73858 12.5 7.5Z" fill="#6A6A6A"/>
</g>
<defs>
<clipPath id="clip0_13_163">
<rect width="16" height="16" fill="white"/>
</clipPath>
</defs>
</svg>
