<svg width="18" height="18" viewBox="0 0 18 18" fill="none" xmlns="http://www.w3.org/2000/svg">
<path d="M9 8.0908C8.44379 8.09083 7.89302 7.98622 7.37914 7.78294C6.86525 7.57965 6.39832 7.28168 6.00501 6.90602C5.6117 6.53037 5.2997 6.08439 5.08684 5.59357C4.87398 5.10274 4.76442 4.57667 4.76442 4.0454C4.76442 3.51413 4.87398 2.98806 5.08684 2.49723C5.2997 2.0064 5.6117 1.56043 6.00501 1.18477C6.39832 0.809122 6.86525 0.511145 7.37914 0.307861C7.89302 0.104576 8.44379 -3.52098e-05 9 8.88963e-09C10.1232 7.11301e-05 11.2004 0.426313 11.9946 1.18496C12.7888 1.94362 13.235 2.97254 13.235 4.0454C13.235 5.11826 12.7888 6.14718 11.9946 6.90583C11.2004 7.66448 10.1232 8.09073 9 8.0908Z" fill="white"/>
<path d="M1.60412 10.7911L4.20035 10.1722C4.53895 10.0914 4.89322 10.0917 5.23164 10.1732C5.57006 10.2548 5.88214 10.4149 6.14012 10.6394L8.26624 12.4902C8.46124 12.6599 8.71554 12.754 8.97935 12.754C9.24316 12.754 9.49747 12.6599 9.69247 12.4902L11.8207 10.6374C12.0782 10.4132 12.3897 10.2532 12.7276 10.1715C13.0654 10.0898 13.4191 10.089 13.7573 10.1692L16.3916 10.7932C16.8509 10.9019 17.2588 11.1543 17.5504 11.5103C17.8419 11.8663 18.0002 12.3053 18 12.7572V15.9773C18 16.5138 17.7769 17.0283 17.3798 17.4076C16.9826 17.7869 16.444 18 15.8824 18H2.11765C1.55601 18 1.01738 17.7869 0.620244 17.4076C0.223109 17.0283 0 16.5138 0 15.9773V12.7542C7.15019e-05 12.3031 0.15798 11.865 0.448629 11.5095C0.739277 11.154 1.14599 10.9015 1.60412 10.7922V10.7911Z" fill="white"/>
</svg>
