<svg width="14" height="14" viewBox="0 0 14 14" fill="none" xmlns="http://www.w3.org/2000/svg">
<g clip-path="url(#clip0_13_34)">
<path fill-rule="evenodd" clip-rule="evenodd" d="M7.00001 13.5333C10.6083 13.5333 13.5333 10.6083 13.5333 7C13.5333 3.39174 10.6083 0.466667 7.00001 0.466667C3.39175 0.466667 0.466675 3.39174 0.466675 7C0.466675 10.6083 3.39175 13.5333 7.00001 13.5333ZM5.13334 5.2193V8.99078C5.1333 9.1216 5.16833 9.25007 5.23484 9.36311C5.30135 9.47613 5.39697 9.56965 5.51192 9.63405C5.62687 9.69855 5.75703 9.73168 5.88912 9.73C6.02121 9.72832 6.15049 9.69201 6.26376 9.62463L9.43741 7.73893C9.54799 7.67329 9.63951 7.58039 9.70306 7.46931C9.7666 7.35821 9.80001 7.23272 9.80001 7.10505C9.80001 6.97738 9.7666 6.85188 9.70306 6.74079C9.63951 6.6297 9.54799 6.53681 9.43741 6.47116L6.26376 4.58542C6.15049 4.5181 6.02121 4.48176 5.88912 4.4801C5.75703 4.47845 5.62687 4.51154 5.51192 4.576C5.39697 4.64046 5.30135 4.73397 5.23484 4.847C5.16833 4.96001 5.1333 5.0885 5.13334 5.2193Z" fill="#909090"/>
</g>
<defs>
<clipPath id="clip0_13_34">
<rect width="14" height="14" fill="white"/>
</clipPath>
</defs>
</svg>
