<svg width="18" height="18" viewBox="0 0 18 18" fill="none" xmlns="http://www.w3.org/2000/svg">
<path d="M9.22816 15.2711C9.47779 15.2711 9.68223 15.4744 9.68223 15.7263V17.5448C9.68223 17.6046 9.67045 17.6638 9.64758 17.719C9.6247 17.7742 9.59117 17.8244 9.54891 17.8667C9.50664 17.9089 9.45646 17.9425 9.40123 17.9653C9.346 17.9882 9.28681 18 9.22703 18H8.77297C8.65224 18 8.53646 17.952 8.45109 17.8667C8.36573 17.7813 8.31777 17.6655 8.31777 17.5448V15.7263C8.31777 15.6056 8.36573 15.4898 8.45109 15.4044C8.53646 15.319 8.65224 15.2711 8.77297 15.2711H9.22703H9.22816ZM13.9439 12.9793L15.2316 14.2658C15.2738 14.3081 15.3074 14.3583 15.3303 14.4135C15.3531 14.4687 15.3649 14.5279 15.3649 14.5877C15.3649 14.6475 15.3531 14.7067 15.3303 14.7619C15.3074 14.8172 15.2738 14.8674 15.2316 14.9096L14.9096 15.2304C14.8674 15.2727 14.8172 15.3062 14.7619 15.3291C14.7067 15.352 14.6475 15.3638 14.5877 15.3638C14.5279 15.3638 14.4687 15.352 14.4135 15.3291C14.3583 15.3062 14.3081 15.2727 14.2658 15.2304L12.9804 13.9439C12.9381 13.9016 12.9046 13.8514 12.8817 13.7962C12.8588 13.741 12.8471 13.6818 12.8471 13.622C12.8471 13.5622 12.8588 13.503 12.8817 13.4478C12.9046 13.3925 12.9381 13.3423 12.9804 13.3001L13.3012 12.9793C13.3435 12.937 13.3937 12.9035 13.4489 12.8806C13.5041 12.8577 13.5633 12.8459 13.6231 12.8459C13.6829 12.8459 13.7421 12.8577 13.7973 12.8806C13.8526 12.9035 13.9028 12.937 13.945 12.9793H13.9439ZM4.69879 13.9834L5.02071 14.3053C5.10575 14.3907 5.15351 14.5062 5.15351 14.6267C5.15351 14.7472 5.10575 14.8627 5.02071 14.948L3.73419 16.2346C3.69192 16.2768 3.64173 16.3104 3.5865 16.3333C3.53126 16.3561 3.47206 16.3679 3.41227 16.3679C3.35249 16.3679 3.29329 16.3561 3.23805 16.3333C3.18282 16.3104 3.13263 16.2768 3.09036 16.2346L2.76958 15.9127C2.7273 15.8704 2.69376 15.8202 2.67087 15.765C2.64799 15.7097 2.63621 15.6505 2.63621 15.5907C2.63621 15.531 2.64799 15.4717 2.67087 15.4165C2.69376 15.3613 2.7273 15.3111 2.76958 15.2688L4.0561 13.9834C4.09837 13.9412 4.14855 13.9076 4.20379 13.8847C4.25902 13.8618 4.31822 13.8501 4.37801 13.8501C4.4378 13.8501 4.497 13.8618 4.55223 13.8847C4.60747 13.9076 4.65765 13.9412 4.69992 13.9834H4.69879ZM9.01694 4.02334C10.3485 4.02334 11.6256 4.55231 12.5671 5.49387C13.5087 6.43544 14.0377 7.71248 14.0377 9.04405C14.0377 10.3756 13.5087 11.6527 12.5671 12.5942C11.6256 13.5358 10.3485 14.0648 9.01694 14.0648C7.68537 14.0648 6.40833 13.5358 5.46677 12.5942C4.5252 11.6527 3.99623 10.3756 3.99623 9.04405C3.99623 7.71248 4.5252 6.43544 5.46677 5.49387C6.40833 4.55231 7.68537 4.02334 9.01694 4.02334ZM17.5448 8.31777C17.6046 8.31777 17.6638 8.32955 17.719 8.35242C17.7742 8.3753 17.8244 8.40883 17.8667 8.45109C17.9089 8.49336 17.9425 8.54354 17.9653 8.59877C17.9882 8.654 18 8.71319 18 8.77297V9.22703C18 9.28681 17.9882 9.346 17.9653 9.40123C17.9425 9.45646 17.9089 9.50664 17.8667 9.54891C17.8244 9.59117 17.7742 9.6247 17.719 9.64758C17.6638 9.67045 17.6046 9.68223 17.5448 9.68223H15.7263C15.6665 9.68223 15.6073 9.67045 15.5521 9.64758C15.4969 9.6247 15.4467 9.59117 15.4044 9.54891C15.3621 9.50664 15.3286 9.45646 15.3057 9.40123C15.2829 9.346 15.2711 9.28681 15.2711 9.22703V8.77297C15.2711 8.65224 15.319 8.53646 15.4044 8.45109C15.4898 8.36573 15.6056 8.31777 15.7263 8.31777H17.5448ZM2.27372 8.31777C2.39425 8.31807 2.50974 8.36616 2.59486 8.45149C2.67998 8.53683 2.72779 8.65244 2.72779 8.77297V9.22703C2.72779 9.47779 2.52447 9.68223 2.27372 9.68223H0.455196C0.33447 9.68223 0.21869 9.63427 0.133324 9.54891C0.047958 9.46354 0 9.34776 0 9.22703L0 8.77297C0 8.65224 0.047958 8.53646 0.133324 8.45109C0.21869 8.36573 0.33447 8.31777 0.455196 8.31777H2.27372ZM15.2316 3.09036C15.2738 3.13263 15.3074 3.18282 15.3303 3.23805C15.3531 3.29329 15.3649 3.35249 15.3649 3.41227C15.3649 3.47206 15.3531 3.53126 15.3303 3.5865C15.3074 3.64173 15.2738 3.69192 15.2316 3.73419L13.9439 5.01958C13.8586 5.10428 13.7433 5.15182 13.6231 5.15182C13.5029 5.15182 13.3876 5.10428 13.3023 5.01958L12.9804 4.69879C12.9381 4.65652 12.9046 4.60634 12.8817 4.5511C12.8588 4.49587 12.8471 4.43667 12.8471 4.37688C12.8471 4.3171 12.8588 4.25789 12.8817 4.20266C12.9046 4.14743 12.9381 4.09724 12.9804 4.05497L14.2658 2.76958C14.3081 2.7273 14.3583 2.69376 14.4135 2.67087C14.4687 2.64799 14.5279 2.63621 14.5877 2.63621C14.6475 2.63621 14.7067 2.64799 14.7619 2.67087C14.8172 2.69376 14.8674 2.7273 14.9096 2.76958L15.2316 3.09036ZM3.73419 2.76958L5.02184 4.0561C5.10688 4.14142 5.15464 4.25698 5.15464 4.37745C5.15464 4.49792 5.10688 4.61347 5.02184 4.69879L4.69992 5.01958C4.65765 5.06186 4.60747 5.0954 4.55223 5.11828C4.497 5.14116 4.4378 5.15294 4.37801 5.15294C4.31822 5.15294 4.25902 5.14116 4.20379 5.11828C4.14855 5.0954 4.09837 5.06186 4.0561 5.01958L2.76958 3.73306C2.7273 3.69079 2.69376 3.6406 2.67087 3.58537C2.64799 3.53013 2.63621 3.47093 2.63621 3.41114C2.63621 3.35136 2.64799 3.29216 2.67087 3.23692C2.69376 3.18169 2.7273 3.1315 2.76958 3.08923L3.09149 2.76845C3.17681 2.6834 3.29237 2.63565 3.41284 2.63565C3.53331 2.63565 3.64886 2.6834 3.73419 2.76845V2.76958ZM9.22816 0C9.34889 0 9.46467 0.047958 9.55003 0.133324C9.6354 0.21869 9.68336 0.33447 9.68336 0.455196V2.27372C9.68306 2.39425 9.63497 2.50974 9.54963 2.59486C9.4643 2.67998 9.34869 2.72779 9.22816 2.72779H8.7741C8.65357 2.72779 8.53796 2.67998 8.45262 2.59486C8.36729 2.50974 8.3192 2.39425 8.3189 2.27372V0.455196C8.3189 0.203313 8.52221 0 8.7741 0H9.22816Z" fill="white"/>
</svg>
