<svg width="18" height="18" viewBox="0 0 18 18" fill="none" xmlns="http://www.w3.org/2000/svg">
<g clip-path="url(#clip0_13_39)">
<path d="M15.6904 9.891L15.6814 9.909C15.7174 9.612 15.7534 9.306 15.7534 9C15.7534 8.694 15.7264 8.406 15.6904 8.109L15.6994 8.127L17.8954 6.399L15.7084 2.601L13.1254 3.645L13.1344 3.654C12.6621 3.28865 12.1444 2.98613 11.5943 2.754H11.6033L11.1893 0H6.80626L6.41026 2.763H6.41926C5.86126 2.997 5.34826 3.303 4.88026 3.663L4.88926 3.654L2.29726 2.601L0.101257 6.399L2.29726 8.127L2.30626 8.109C2.27026 8.406 2.24326 8.694 2.24326 9C2.24326 9.306 2.27026 9.612 2.31526 9.909L2.30626 9.891L0.416257 11.376L0.119257 11.61L2.30626 15.39L4.89826 14.355L4.88026 14.319C5.35726 14.688 5.87026 14.994 6.43726 15.228H6.41026L6.81526 18H11.1803C11.1803 18 11.2073 17.838 11.2343 17.622L11.5763 15.237H11.5673C12.1253 15.003 12.6473 14.697 13.1243 14.328L13.1063 14.364L15.6994 15.399L17.8864 11.619C17.8864 11.619 17.7604 11.511 17.5894 11.385L15.6904 9.891ZM8.99326 12.15C8.1581 12.1491 7.3574 11.8169 6.76686 11.2264C6.17631 10.6359 5.84415 9.83516 5.84326 9C5.84326 7.263 7.25626 5.85 8.99326 5.85C10.7303 5.85 12.1433 7.263 12.1433 9C12.1433 10.737 10.7303 12.15 8.99326 12.15Z" fill="#909090"/>
</g>
<defs>
<clipPath id="clip0_13_39">
<rect width="18" height="18" fill="white"/>
</clipPath>
</defs>
</svg>
