<svg width="16" height="16" viewBox="0 0 16 16" fill="none" xmlns="http://www.w3.org/2000/svg">
<path d="M8 0C9.05058 -1.56548e-08 10.0909 0.206926 11.0615 0.608964C12.0321 1.011 12.914 1.60028 13.6569 2.34315C14.3997 3.08601 14.989 3.96793 15.391 4.93853C15.7931 5.90914 16 6.94943 16 8C16 9.05058 15.7931 10.0909 15.391 11.0615C14.989 12.0321 14.3997 12.914 13.6569 13.6569C12.914 14.3997 12.0321 14.989 11.0615 15.391C10.0909 15.7931 9.05058 16 8 16C5.87827 16 3.84344 15.1571 2.34315 13.6569C0.842855 12.1566 0 10.1217 0 8C0 5.87827 0.842855 3.84344 2.34315 2.34315C3.84344 0.842855 5.87827 3.16163e-08 8 0ZM5.94237 3.76547C5.83631 3.88178 5.77751 4.03352 5.77751 4.19093C5.77751 4.34834 5.83631 4.50008 5.94237 4.61639L5.98948 4.66249L9.72588 8L5.98948 11.3375C5.87177 11.4422 5.79746 11.5872 5.78114 11.7439C5.76482 11.9006 5.80767 12.0577 5.90128 12.1844L5.94137 12.2345C6.16387 12.4791 6.5327 12.5132 6.79429 12.3227L6.8444 12.2826L10.7582 8.78677C10.8645 8.69231 10.9505 8.57728 11.0111 8.44865C11.0717 8.32002 11.1056 8.18044 11.1107 8.03834C11.1159 7.89625 11.0922 7.75458 11.0411 7.6219C10.99 7.48921 10.9125 7.36826 10.8133 7.26635L10.7582 7.21423L6.8454 3.71937C6.71894 3.60687 6.55324 3.54873 6.38422 3.55755C6.21519 3.56637 6.05644 3.64143 5.94237 3.76647V3.76547Z" fill="#555B62"/>
</svg>
