<svg width="8" height="8" viewBox="0 0 8 8" fill="none" xmlns="http://www.w3.org/2000/svg">
<path d="M0.157613 1.74311L3.3224 7.55929C3.39642 7.69528 3.49264 7.80589 3.60345 7.88238C3.71426 7.95888 3.8366 7.99914 3.9608 7.99999C4.085 8.00083 4.20763 7.96224 4.31899 7.88726C4.43036 7.81229 4.52739 7.70299 4.6024 7.56802L7.83759 1.74965C7.92757 1.58776 7.98261 1.39482 7.99651 1.19257C8.01041 0.990325 7.98261 0.786803 7.91625 0.604933C7.8499 0.423063 7.74761 0.270071 7.62092 0.163192C7.49423 0.0563138 7.34817 -0.000205839 7.19919 5.63295e-07H0.79921C0.651048 0.000199367 0.505836 0.0564974 0.379761 0.162619C0.253686 0.268741 0.151702 0.420517 0.0851764 0.60103C0.0186506 0.781543 -0.00980326 0.9837 0.00298656 1.18497C0.0157764 1.38624 0.0693073 1.57871 0.157613 1.74093V1.74311Z" fill="white"/>
</svg>
