<svg width="12" height="12" viewBox="0 0 12 12" fill="none" xmlns="http://www.w3.org/2000/svg">
<path d="M11.4956 12H0.504387C0.415972 12.0001 0.32909 11.9738 0.252467 11.9238C0.175844 11.8738 0.112177 11.8018 0.0678621 11.7151C0.0235469 11.6283 0.000142906 11.5299 6.52371e-07 11.4297C-0.000141601 11.3294 0.0229829 11.2309 0.0670517 11.144L5.56227 0.287514C5.60636 0.200162 5.67003 0.127567 5.74683 0.0770785C5.82363 0.02659 5.91083 0 5.9996 0C6.08838 0 6.17558 0.02659 6.25238 0.0770785C6.32918 0.127567 6.39285 0.200162 6.43694 0.287514L11.9329 11.1431C11.977 11.23 12.0001 11.3285 12 11.4288C11.9999 11.529 11.9765 11.6274 11.9321 11.7142C11.8878 11.8009 11.8242 11.8729 11.7475 11.9229C11.6709 11.9729 11.584 11.9992 11.4956 11.9991V12ZM5.17881 3.01803V7.50902H6.76336V3.01803H5.17881ZM5.17881 8.40721V10.2036H6.76336V8.40721H5.17881Z" fill="#FAAD14"/>
</svg>
