<svg width="12" height="12" viewBox="0 0 12 12" fill="none" xmlns="http://www.w3.org/2000/svg">
<path d="M11.7355 0.263726C11.8193 0.347388 11.8857 0.446742 11.9311 0.556105C11.9764 0.665469 11.9997 0.782697 11.9997 0.901086C11.9997 1.01948 11.9764 1.1367 11.9311 1.24607C11.8857 1.35543 11.8193 1.45478 11.7355 1.53845L7.27456 5.99997L11.7366 10.4615C11.8977 10.6228 11.9917 10.8393 11.9995 11.0673C12.0073 11.2952 11.9283 11.5176 11.7786 11.6896C11.6289 11.8616 11.4195 11.9704 11.1927 11.994C10.9659 12.0177 10.7385 11.9544 10.5566 11.8169L10.4641 11.7362L6 7.27469L1.53692 11.7362C1.38302 11.8901 1.17862 11.9831 0.961499 11.9979C0.74438 12.0127 0.529229 11.9485 0.355829 11.8169L0.264485 11.7362C0.18073 11.6525 0.114285 11.5532 0.068951 11.4438C0.023617 11.3345 0.000282792 11.2172 0.000282792 11.0988C0.000282792 10.9805 0.023617 10.8632 0.068951 10.7539C0.114285 10.6445 0.18073 10.5451 0.264485 10.4615L4.72544 5.99997L0.264485 1.53845C0.102979 1.37726 0.00865491 1.16078 0.000566634 0.932738C-0.00752164 0.704691 0.0712284 0.482072 0.22091 0.309849C0.370591 0.137626 0.580048 0.0286354 0.806971 0.00489194C1.03389 -0.0188515 1.26137 0.044422 1.44345 0.181932L1.53692 0.263726L6 4.72525L10.4631 0.263726C10.6319 0.0952 10.8607 0.00055236 11.0993 0.00055236C11.3379 0.00055236 11.5667 0.0952 11.7355 0.263726Z" fill="#555B62"/>
</svg>
