<svg width="18" height="18" viewBox="0 0 18 18" fill="none" xmlns="http://www.w3.org/2000/svg">
<path d="M3.375 12.4827V5.20227C3.3749 4.45014 3.56392 3.71155 3.92262 3.06239C4.28132 2.41323 4.79677 1.87692 5.416 1.50856L7.041 0.542777C7.63923 0.186915 8.31385 0 9 0C9.68615 0 10.3608 0.186915 10.959 0.542777L12.584 1.50856C13.2032 1.87692 13.7187 2.41323 14.0774 3.06239C14.4361 3.71155 14.6251 4.45014 14.625 5.20227V12.4827" fill="white"/>
<path d="M0 10.2324H18V12.6151H0V10.2324ZM5.684 14.426C5.684 15.3739 6.03958 16.2829 6.67251 16.9532C7.30545 17.6235 8.16389 18 9.059 18C9.95411 18 10.8126 17.6235 11.4455 16.9532C12.0784 16.2829 12.434 15.3739 12.434 14.426" fill="white"/>
</svg>
